<svg xmlns="http://www.w3.org/2000/svg" viewBox="0 0 32 32"><g data-name="Layer 5"><path d="M16,10a7,7,0,1,0,7,7A7,7,0,0,0,16,10Zm0,12a5,5,0,1,1,5-5A5,5,0,0,1,16,22Z"/><circle cx="25" cy="13" r="1"/><path d="M25,8h-.76a1,1,0,0,1-.9-.55L23,6.76A5,5,0,0,0,18.53,4H13.47A5,5,0,0,0,9,6.76l-.34.69a1,1,0,0,1-.9.55H7a5,5,0,0,0-5,5V23a5,5,0,0,0,5,5H25a5,5,0,0,0,5-5V13A5,5,0,0,0,25,8Zm3,15a3,3,0,0,1-3,3H7a3,3,0,0,1-3-3V13a3,3,0,0,1,3-3h.76a3,3,0,0,0,2.69-1.66l.34-.68A3,3,0,0,1,13.47,6h5.06a3,3,0,0,1,2.68,1.66l.34.68A3,3,0,0,0,24.24,10H25a3,3,0,0,1,3,3Z"/></g></svg>