<svg xmlns="http://www.w3.org/2000/svg" width="150" height="150" enable-background="new 0 0 150 150" viewBox="0 0 150 150"><path fill="#191818" d="M142.25 130.545h-27.219v-4.5h22.648c-.961-15.367-11.705-28.434-26.788-32.216-.027-.008-.305-.08-.527-.154-1.484-.464-2.541-1.922-2.541-3.536 0-1.525.913-2.887 2.325-3.469 7.582-3.188 12.49-10.573 12.49-18.813 0-11.261-9.159-20.422-20.417-20.422-2.025 0-4.033.299-5.97.889l-1.311-4.305c2.361-.72 4.811-1.084 7.28-1.084 13.739 0 24.917 11.18 24.917 24.922 0 9.362-5.193 17.822-13.392 22.089 16.86 5.035 28.503 20.557 28.503 38.349V130.545zM109.156 130.545H7.75v-2.25c0-23.079 15.472-43.146 37.703-49.023-11.164-5.089-18.322-16.169-18.322-28.492 0-17.272 14.052-31.324 31.323-31.324 17.275 0 31.329 14.052 31.329 31.324 0 12.326-7.161 23.407-18.326 28.491 22.215 5.857 37.699 25.932 37.699 49.024V130.545zM12.304 126.045h92.299c-.975-20.271-15.035-37.593-34.864-42.569-.033-.009-.37-.1-.631-.185-1.647-.509-2.822-2.13-2.822-3.934 0-1.689 1.006-3.202 2.562-3.856 9.984-4.191 16.437-13.896 16.437-24.722 0-14.791-12.035-26.824-26.829-26.824-14.79 0-26.823 12.033-26.823 26.824 0 10.825 6.449 20.528 16.43 24.723 1.557.648 2.566 2.163 2.566 3.855 0 1.804-1.176 3.427-2.86 3.945-.217.073-.566.165-.566.165C27.342 88.452 13.278 105.775 12.304 126.045z"/></svg>