<svg xmlns="http://www.w3.org/2000/svg" data-name="Layer 1" viewBox="0 0 32 32"><path d="M26,32H4a3,3,0,0,1-3-3V3A3,3,0,0,1,4,0H26a3,3,0,0,1,3,3V29A3,3,0,0,1,26,32ZM4,2A1,1,0,0,0,3,3V29a1,1,0,0,0,1,1H26a1,1,0,0,0,1-1V3a1,1,0,0,0-1-1Z"/><path d="M15 15a3 3 0 1 1 3-3A3 3 0 0 1 15 15zm0-4a1 1 0 1 0 1 1A1 1 0 0 0 15 11zM20 23H10a1 1 0 0 1-1-1V21a5 5 0 0 1 5-5h2a5 5 0 0 1 5 5v1A1 1 0 0 1 20 23zm-9-2h8a3 3 0 0 0-3-3H14A3 3 0 0 0 11 21z"/><rect width="4" height="6" x="27" y="4" rx="1" ry="1"/><rect width="4" height="8" x="27" y="12" rx="1" ry="1"/><rect width="4" height="6" x="27" y="22" rx="1" ry="1"/></svg>