<svg xmlns="http://www.w3.org/2000/svg" viewBox="0 0 64 64"><path fill="#222" d="M32.1484,56.7129a24.8829,24.8829,0,0,1-5.6162-.6455A24.71,24.71,0,0,1,7.5332,34.5327a1.5,1.5,0,1,1,2.9844-.3037A21.6973,21.6973,0,0,0,43.5859,50.4146,21.6929,21.6929,0,0,0,20.6172,13.6074l-7.002,4.3692a1.5,1.5,0,0,1-1.5879-2.545l7.002-4.3691a24.6926,24.6926,0,1,1,13.1191,45.65Z"/><path fill="#222" d="M12.8213,18.2046a1.5012,1.5012,0,0,1-1.4072-2.02L15.3789,5.4434a1.5,1.5,0,0,1,2.8145,1.039L14.2285,17.2236A1.5,1.5,0,0,1,12.8213,18.2046Z"/><path fill="#222" d="M24.2148 19.3633a1.4862 1.4862 0 0 1-.1533-.0078L12.67 18.1963a1.5 1.5 0 1 1 .3028-2.9844l11.3916 1.1592a1.5 1.5 0 0 1-.1495 2.9922zM21.3438 44.1563a1.5 1.5 0 0 1-1.0606-2.5606L30.5 31.3789V21.0957a1.5 1.5 0 0 1 3 0V32a1.5 1.5 0 0 1-.44 1.06L22.4043 43.7168A1.4952 1.4952 0 0 1 21.3438 44.1563z"/></svg>