<svg xmlns="http://www.w3.org/2000/svg" enable-background="new 0 0 66 66" viewBox="0 0 66 66"><path d="M50.2,0.8H15.8c-1.8,0-3.2,1.4-3.2,3.2v58c0,1.8,1.4,3.2,3.2,3.2h34.5c1.8,0,3.2-1.4,3.2-3.2V4C53.4,2.2,52,0.8,50.2,0.8z
			 M14.6,9.5h36.8v40.3H14.6V9.5z M15.8,2.8h34.5c0.6,0,1.2,0.5,1.2,1.2v3.5H14.6V4C14.6,3.3,15.1,2.8,15.8,2.8z M50.2,63.2H15.8
			c-0.6,0-1.2-0.5-1.2-1.2V51.8h36.8V62C51.4,62.7,50.9,63.2,50.2,63.2z"/><path d="M33 53.3c-2.2 0-4 1.8-4 4s1.8 4 4 4 4-1.8 4-4S35.2 53.3 33 53.3zM33 59.3c-1.1 0-2-.9-2-2s.9-2 2-2 2 .9 2 2S34.1 59.3 33 59.3zM30 6.1h6c.6 0 1-.4 1-1s-.4-1-1-1h-6c-.6 0-1 .4-1 1S29.4 6.1 30 6.1zM25.2 6.1h.5c.6 0 1-.4 1-1s-.4-1-1-1h-.5c-.6 0-1 .4-1 1S24.7 6.1 25.2 6.1zM33 30.1c-5.8 0-10.6 4.8-10.6 10.6 0 .6.4 1 1 1h19.2c.6 0 1-.4 1-1C43.6 34.9 38.8 30.1 33 30.1zM24.5 39.8c.5-4.3 4.1-7.6 8.5-7.6s8.1 3.3 8.5 7.6H24.5zM33 27.5c2.7 0 4.9-2.2 4.9-4.9s-2.2-4.9-4.9-4.9-4.9 2.2-4.9 4.9S30.3 27.5 33 27.5zM33 19.8c1.6 0 2.9 1.3 2.9 2.9s-1.3 2.9-2.9 2.9-2.9-1.3-2.9-2.9S31.4 19.8 33 19.8z"/></svg>