<svg xmlns="http://www.w3.org/2000/svg" enable-background="new 0 0 49 49" viewBox="0 0 49 49"><path d="M11.94,37.05c7.42,7.42,16.12,11.46,23.25,11.46c3.86,0,7.26-1.19,9.74-3.67l1.08-1.08c1.61-1.61,2.5-3.75,2.5-6.03
	s-0.89-4.42-2.5-6.03l-3.68-3.68c-3.33-3.33-8.74-3.33-12.06,0c-0.88,0.88-3.97,0.35-6.8-2.49c-2.83-2.83-3.37-5.92-2.49-6.8
	c1.61-1.61,2.5-3.75,2.5-6.03s-0.89-4.42-2.5-6.03l-3.68-3.68c-3.33-3.33-8.74-3.33-12.06,0L4.14,4.06
	c-3.51,3.51-4.53,8.97-2.87,15.38C2.83,25.48,6.62,31.73,11.94,37.05z M6.97,6.89l1.08-1.08c0.88-0.88,2.04-1.32,3.2-1.32
	s2.32,0.44,3.2,1.32l3.68,3.68c0.86,0.86,1.33,1.99,1.33,3.2s-0.47,2.35-1.33,3.2c-1.45,1.45-1.92,3.72-1.27,6.21
	c0.56,2.16,1.89,4.38,3.76,6.24c4.19,4.19,9.66,5.28,12.46,2.49c1.77-1.77,4.64-1.77,6.41,0l3.68,3.68c0.86,0.86,1.33,1.99,1.33,3.2
	s-0.47,2.35-1.33,3.2l-1.08,1.08c-5.3,5.3-17.81,1.73-27.33-7.79C9.94,29.4,6.53,23.8,5.14,18.44C3.86,13.46,4.51,9.35,6.97,6.89z"/></svg>