<svg xmlns="http://www.w3.org/2000/svg" width="22" height="22" viewBox="0 0 22 22"><path fill="#000" fill-rule="evenodd" d="M351,38.2071068 L351,41 L331,41 L331,40.2071068 L331,40.2071068 L337,34.2232433 L342,39.2071068 L342.707107,38.5 L340.707788,36.5006809 L345.004815,32.2119213 L351,38.2071068 L351,38.2071068 Z M351,36.7928932 L351,27 L331,27 L331,38.7928932 L337,32.7928932 L340,35.7928932 L345,30.7928932 L351,36.7928932 L351,36.7928932 Z M330,26 L352,26 L352,42 L330,42 L330,26 Z M337,31 C337.552285,31 338,30.5522847 338,30 C338,29.4477153 337.552285,29 337,29 C336.447715,29 336,29.4477153 336,30 C336,30.5522847 336.447715,31 337,31 Z M332,24 L350,24 L350,25 L332,25 L332,24 Z M334,22 L348,22 L348,23 L334,23 L334,22 Z" transform="translate(-330 -21)"/></svg>