<svg xmlns="http://www.w3.org/2000/svg" enable-background="new 0 0 67 67" viewBox="0 0 67 67"><path d="M60,1.5H19.6c-2.4,0-4.3,2-4.3,4.4v7.8l-9.5,2.9c-2.3,0.7-3.6,3.2-2.9,5.5l12.4,40.4c0.7,2.3,3.1,3.6,5.4,2.9l38.6-11.9
			c0.7-0.2,1.2-0.6,1.7-1c0,0,0,0,0,0c1.9-0.5,3.3-2.2,3.3-4.2V5.9C64.3,3.5,62.4,1.5,60,1.5z M20.3,63.9c-1.5,0.5-3.1-0.4-3.6-1.9
			L4.3,21.6c-0.5-1.5,0.4-3.1,1.9-3.6l9-2.8v3.2l-7.3,2.3c-0.4,0.1-0.6,0.5-0.5,0.9l7.8,25.3v1.3c0,1.3,0.5,2.4,1.4,3.2l0,0l0.7,2.3
			c0.1,0.2,0.2,0.3,0.4,0.4c0.1,0.1,0.2,0.1,0.3,0.1c0.1,0,0.2,0,0.2,0l5.1-1.6h33.8L20.3,63.9z M15.2,19.9v21.8L9.1,21.8L15.2,19.9
			z M18.5,52.4c0,0,0.1,0,0.1,0L18.5,52.4L18.5,52.4z M62.8,48.2c0,1.6-1.3,2.9-2.8,2.9H19.6c-1.6,0-2.8-1.3-2.8-2.9V5.9
			C16.7,4.3,18,3,19.6,3H60c1.6,0,2.8,1.3,2.8,2.9V48.2z"/><path d="M59.1,6H20.5c-0.4,0-0.8,0.3-0.8,0.8v33.5c0,0.4,0.3,0.8,0.8,0.8h38.6c0.4,0,0.8-0.3,0.8-0.8V6.8C59.8,6.4,59.5,6,59.1,6z
			 M37,39.4C37,39.4,37,39.4,37,39.4c-0.1,0.1-0.1,0.1-0.1,0.1c0,0,0,0,0,0H21.2v-4.3l12.5-17.9c0.1,0.1,8.8,12.6,9.3,13.3
			C38.7,36.9,37.3,38.9,37,39.4C37,39.4,37,39.4,37,39.4z M39.6,23c0.7-1.8,2.4-3.2,4.4-3.2c2,0,3.8,1.3,4.4,3.1L44,29.3L39.6,23z
			 M58.3,39.5H38.7C40.6,36.9,50,23.5,50,23.4l0.1,0.2l8.1,11.6V39.5z M58.3,32.6l-7.7-11c-0.3-0.4-0.9-0.4-1.2-0.1
			c-1.1-1.9-3.1-3.2-5.4-3.2c-2.3,0-4.4,1.3-5.4,3.2l-4.2-6.1c-0.3-0.4-1-0.4-1.2,0l-11.9,17v-25h37.1V32.6z"/></svg>