<svg xmlns="http://www.w3.org/2000/svg" viewBox="0 0 48 48"><path fill="#231f20" d="M42,3H6A5.0059,5.0059,0,0,0,1,8V30a5.0059,5.0059,0,0,0,5,5H8v7.9551a2.0315,2.0315,0,0,0,1.2686,1.9014,1.9621,1.9621,0,0,0,2.16-.4717L20.4268,35H42a5.0059,5.0059,0,0,0,5-5V8A5.0059,5.0059,0,0,0,42,3Zm3,27a3.0033,3.0033,0,0,1-3,3H20a1.0009,1.0009,0,0,0-.7217.3076L10,42.9551V34a.9994.9994,0,0,0-1-1H6a3.0033,3.0033,0,0,1-3-3V8A3.0033,3.0033,0,0,1,6,5H42a3.0033,3.0033,0,0,1,3,3Z"/><path fill="#231f20" d="M12 14H22a1 1 0 0 0 0-2H12a1 1 0 0 0 0 2zM32 24H12a1 1 0 0 0 0 2H32a1 1 0 0 0 0-2zM36 18H12a1 1 0 0 0 0 2H36a1 1 0 0 0 0-2z"/></svg>