<svg xmlns="http://www.w3.org/2000/svg" enable-background="new 0 0 32 32" viewBox="0 0 32 32"><path d="M4,6v6v8v6c0,1.7,1.3,3,3,3h18c1.7,0,3-1.3,3-3v-6v-8V6c0-1.7-1.3-3-3-3H7C5.3,3,4,4.3,4,6z M26,19H6v-6h20V19z M26,26
		c0,0.6-0.4,1-1,1H7c-0.6,0-1-0.4-1-1v-5h20V26z M6,6c0-0.6,0.4-1,1-1h18c0.6,0,1,0.4,1,1v5H6V6z"/><path d="M7.8 7.3C7.6 7.5 7.5 7.7 7.5 8c0 .3.1.5.3.7C8 8.9 8.2 9 8.5 9 8.8 9 9 8.9 9.2 8.7 9.4 8.5 9.5 8.3 9.5 8c0-.3-.1-.5-.3-.7C8.8 6.9 8.2 6.9 7.8 7.3zM8.5 17c.3 0 .5-.1.7-.3.2-.2.3-.5.3-.7 0-.3-.1-.5-.3-.7-.4-.4-1-.4-1.4 0-.2.2-.3.4-.3.7 0 .3.1.5.3.7C8 16.9 8.2 17 8.5 17zM8.5 25c.3 0 .5-.1.7-.3.2-.2.3-.5.3-.7 0-.3-.1-.5-.3-.7-.4-.4-1-.4-1.4 0-.2.2-.3.4-.3.7 0 .3.1.5.3.7C8 24.9 8.2 25 8.5 25z"/></svg>