<svg xmlns="http://www.w3.org/2000/svg" viewBox="0 0 64 64"><path d="M61.515,47.143l-5-3a1,1,0,0,0-.778-.108L44.866,47H42a1,1,0,0,0,0,2h3a1.01,1.01,0,0,0,.263-.035l10.589-2.888L60,48.566V55a1,1,0,0,1-1,1H54a.978.978,0,0,1-.713-.306A.965.965,0,0,1,53,55a1,1,0,0,1,1-1h2a1,1,0,0,0,1-1V50a1,1,0,0,0-2,0v2H54a3,3,0,0,0-3,3,3.015,3.015,0,0,0,3,3h3.382l-.918,1.835-11.222-2.8A1,1,0,0,0,44.91,57l-8.66.783L36.926,49H37a3,3,0,0,0,3-3V44a7,7,0,0,0-14,0v2a2.966,2.966,0,0,0,.184,1H3a1,1,0,0,0,0,2H29.074l.787,10.23A3.014,3.014,0,0,0,32.853,62h.294a3.016,3.016,0,0,0,2.885-2.185l8.89-.8L56.758,61.97a1,1,0,0,0,1.137-.523l1.759-3.519A3,3,0,0,0,62,55V48A1,1,0,0,0,61.515,47.143ZM33,39a5.008,5.008,0,0,1,4.9,4H28.1A5.008,5.008,0,0,1,33,39Zm-5,7V45H38v1a1,1,0,0,1-1,1H29A1,1,0,0,1,28,46Zm5.147,14h-.294a1.006,1.006,0,0,1-1-.923L31.08,49h3.84l-.775,10.077A1.006,1.006,0,0,1,33.147,60Z"/><path d="M26.909 58.637L12 60H3a1 1 0 0 0 0 2l9.091 0 15-1.367a1 1 0 1 0-.182-1.992zM28 27H40a1 1 0 0 0 1-1V10a1 1 0 0 0-1-1H28a1 1 0 0 1 0-2H40a1 1 0 0 0 0-2H28a3 3 0 0 0-3 3V24A3 3 0 0 0 28 27zm0-16H39V25H28a1 1 0 0 1-1-1V10.816A2.966 2.966 0 0 0 28 11zM32 30v4a1 1 0 0 0 2 0V30a1 1 0 0 0-2 0zM41.172 34.934a1 1 0 0 0 1.291-.577l6.5-17a1 1 0 1 0-1.867-.714l-6.5 17A1 1 0 0 0 41.172 34.934zM24.428 34.381a1 1 0 1 0 1.849-.762l-7-17a1 1 0 1 0-1.849.762z"/><path d="M31 23h2a2.987 2.987 0 0 0 2.22-5A2.987 2.987 0 0 0 33 13H31a1 1 0 0 0-1 1v8A1 1 0 0 0 31 23zm2-2H32V19h1a1 1 0 0 1 0 2zm-1-6h1a1 1 0 0 1 0 2H32zM9.447 29.605A1 1 0 0 0 8 30.5v5a1 1 0 0 0 1.447.9l5-2.5a1 1 0 0 0 0-1.79zM10 33.882V32.118L11.764 33z"/><path d="M11 41a8.023 8.023 0 0 0 3.807-.962 1 1 0 0 0-.953-1.759 6 6 0 1 1 2.425-2.425 1 1 0 0 0 1.758.953A8 8 0 1 0 11 41zM49 36a1 1 0 0 0 1 1H60a1 1 0 0 0 1-1V26a1 1 0 0 0-1-1H50a1 1 0 0 0-1 1zm2.618-1L53 32.236 54.382 35zm5 0l-.387-.775L57 32.943 58.233 35zM59 27v5.39l-1.143-1.905a1 1 0 0 0-1.714 0l-.972 1.62L53.9 29.553a1.042 1.042 0 0 0-1.79 0L51 31.764V27z"/><circle cx="56" cy="28" r="1"/></svg>